<?xml version="1.0" encoding="utf-8"?>
<!-- Generator: Adobe Illustrator 27.4.0, SVG Export Plug-In . SVG Version: 6.00 Build 0)  -->
<svg version="1.1" id="Calque_1" xmlns="http://www.w3.org/2000/svg" xmlns:xlink="http://www.w3.org/1999/xlink" x="0px" y="0px"
	 viewBox="0 0 98.1 58.2" style="enable-background:new 0 0 98.1 58.2;" xml:space="preserve">
<style type="text/css">
	.st0{fill:#1D1D1B;}
</style>
<g id="Calque_2_00000178203809940349506350000009707901696396013756_">
	<g id="Calque_1-2">
		<path class="st0" d="M98.1,26.6c-2.1-9.6-8.5-15.9-16.7-20c1.6-0.3,3.1-0.5,4.7-0.5c0.2,0,0.2-0.2-0.1-0.2H80
			C70.4,1.5,58.7,0,49,0l0,0C16.3,0,0,14.6,0,29.2c0,6.4,3.1,12.7,9.4,17.9c-2.7,0.8-5.5,1.3-8.4,1.4c-0.2,0-0.2,0.1,0.1,0.1h10.4
			c8.1,5.8,20.7,9.6,37.5,9.5l0,0C68.8,58.7,99.1,50.9,98.1,26.6z M14.2,44.2L14.2,44.2L14.2,44.2c-0.2,0.2-0.3,0.3-0.4,0.4
			c-8.2-8.1-9.6-20.9-1-29.7c9.5-10,24-14.2,37.4-14.4c7.8,0.3,15.5,2.2,22.6,5.5h-7c-0.1,0-0.2,0.1-0.1,0.2c0.9,0.3,1.6,0.8-0.2,3
			L35.7,43l-0.2,0.2l-1.3,1.5l0.7-1.3l18.3-33.3l0,0c0.1-0.1,0.1-0.3,0.2-0.4c1.3-2,3.4-3.3,5.8-3.6c0.1,0,0.2-0.2,0.1-0.2H45.3
			c-0.1,0-0.2,0.1-0.1,0.2c1,0.3,1.7,0.8-0.5,3.4l-13.2,15c0.1-1.3,0-2.5-0.3-3.8c-0.6-2.2-2.3-3.9-4.5-4.6
			c-1.4-0.2-2.9-0.3-4.4-0.1c-0.4,0-1.4,0.1-2,0.2c-0.1,0-0.1,0-0.1,0.1s0,0.1,0.1,0.1c1.9,0.9,3.3,2.6,3.8,4.6
			c0.7,2.7,0.1,5.5-0.8,8.1c-1.8,5.1-4.9,9.7-8.2,14L14.2,44.2z M60.6,56.4c-14.3,3.2-29.4,0.5-41.6-7.7h2.4c0.1,0,0.2-0.2,0.1-0.2
			c-1-0.3-2.3-1.3-0.4-3.9l0,0l29.3-33.4c0.4-0.4,0.8-0.9,1.2-1.3c0.2-0.3,0.5-0.5,0.7-0.8L51.8,10L33.1,44.1l0,0
			c-1.3,2.1-3.3,3.7-5.6,4.5c-0.1,0-0.2,0.2-0.1,0.2h14.2c0.1,0,0.2-0.1,0.1-0.2c-0.8-0.3-2-1.4,0.2-4.2l0,0
			c7.8-8.9,15.6-17.7,23.3-26.5c-0.3,3.9,0.5,7.3,2.8,9.8c1.9,2.1,7.1,3.5,4,8.2c-2.3,3.5-7.3,6.4-11,8.3c-0.6,0.3-1.2,0.6-1.8,0.9
			l0,0c-0.4,0.2-1.1,0.4-1.9,0.7C63.5,39.5,70,30.7,65,26.9c-0.8-0.6-3.1-0.3-4.3-0.3c-0.4,0-2.9,0.2-2.8,0.5
			C62.6,35,52.2,47,46.7,48.6h-0.2c-0.1,0-0.2,0.2-0.1,0.2h14.2c0.1,0,0.2-0.1,0.1-0.2c-1.2-0.5-1.2-0.7,0.1-1.3
			c4.9-1.8,9.6-4.2,13.8-7.2c4.1-3,6.7-6.7,4.5-9.3c-1.7-2-4.3-3-5.5-5.4c-1.1-2.3-1.6-4.9-1.3-7.4c0.3-2.6,0.9-5.2,1.7-7.6
			c0-0.1,0.1-0.3,0.2-0.5s0.1-0.4,0.2-0.5c0.2-0.5,0.6-0.8,1.1-1.1c0.3-0.1,0.7-0.3,1-0.4C98.1,20.9,97.9,46.9,60.6,56.4z"/>
		<path class="st0" d="M72.9,5.9L72.9,5.9z"/>
	</g>
</g>
</svg>
